<svg width="10" height="6" viewBox="0 0 10 6" fill="none" xmlns="http://www.w3.org/2000/svg">
<path d="M5.00187 4.19972L1.63147 0.829326L1.63147 0.829318C1.45269 0.650565 1.16285 0.650565 0.984066 0.829318L0.984035 0.82935C0.805326 1.00814 0.805315 1.29794 0.984043 1.47673L0.984059 1.47674L4.67816 5.17085L4.67818 5.17086C4.85695 5.34959 5.14678 5.34959 5.32556 5.17086L5.32557 5.17085L9.01968 1.47674L9.01969 1.47676L9.02151 1.47488C9.19717 1.293 9.19212 1.00316 9.01024 0.827495L9.01023 0.82749C8.83281 0.656156 8.55153 0.656145 8.37412 0.827498L8.3741 0.827481L8.37226 0.829325L5.00187 4.19972Z" fill="#50CAFF" stroke="#50CAFF" stroke-width="0.3"/>
</svg>
