<svg width="10" height="10" viewBox="0 0 10 10" fill="none" xmlns="http://www.w3.org/2000/svg">
<g clip-path="url(#clip0_22_6379)">
<path d="M5.00187 6.19972L1.63147 2.82933L1.63147 2.82932C1.45269 2.65056 1.16285 2.65056 0.984066 2.82932L0.984035 2.82935C0.805326 3.00814 0.805315 3.29794 0.984043 3.47673L0.984059 3.47674L4.67816 7.17085L4.67818 7.17086C4.85695 7.34959 5.14678 7.34959 5.32556 7.17086L5.32557 7.17085L9.01968 3.47674L9.01969 3.47676L9.02151 3.47488C9.19717 3.293 9.19212 3.00316 9.01024 2.82749L9.01023 2.82749C8.83281 2.65616 8.55153 2.65614 8.37412 2.8275L8.3741 2.82748L8.37226 2.82933L5.00187 6.19972Z" fill="#50CAFF" stroke="#50CAFF" stroke-width="0.3"/>
</g>
<defs>
<clipPath id="clip0_22_6379">
<rect width="10" height="10" fill="white" transform="translate(0 10) rotate(-90)"/>
</clipPath>
</defs>
</svg>
