<svg width="14" height="12" viewBox="0 0 14 12" fill="none" xmlns="http://www.w3.org/2000/svg">
<path d="M5.20832 11.6554C4.64425 11.6554 4.10079 11.4349 3.6949 11.036L0.163502 7.5658C-0.0519374 7.3541 -0.0549281 7.00782 0.156772 6.79248C0.368473 6.57704 0.714756 6.57395 0.930195 6.78565L4.46149 10.2558C4.68312 10.4736 4.98775 10.5838 5.2974 10.558C5.60704 10.5322 5.88935 10.3732 6.07189 10.1218L13.0106 0.565372C13.188 0.320987 13.53 0.266727 13.7744 0.444141C14.0188 0.621661 14.073 0.963672 13.8956 1.20806L6.95693 10.7644C6.58715 11.2737 6.01538 11.5957 5.38819 11.6479C5.32816 11.6529 5.26802 11.6554 5.20832 11.6554Z" fill="white"/>
</svg>
