<svg width="18" height="18" viewBox="0 0 18 18" fill="none" xmlns="http://www.w3.org/2000/svg">
<g clip-path="url(#clip0_22_6019)">
<path d="M9.03586 10.3712C9.79308 10.3712 10.4069 9.75731 10.4069 9.00009C10.4069 8.24287 9.79308 7.62903 9.03586 7.62903C8.27864 7.62903 7.66479 8.24287 7.66479 9.00009C7.66479 9.75731 8.27864 10.3712 9.03586 10.3712Z" fill="white"/>
<path d="M9.03555 4.99231C6.82569 4.99231 5.02783 6.79018 5.02783 9.00004C5.02783 11.2099 6.82569 13.0078 9.03555 13.0078C11.2454 13.0078 13.0433 11.2099 13.0433 9.00004C13.0433 6.79018 11.2454 4.99231 9.03555 4.99231ZM9.03555 11.6015C7.60107 11.6015 6.43405 10.4345 6.43405 9.00004C6.43405 7.56555 7.60107 6.39853 9.03555 6.39853C10.47 6.39853 11.6371 7.56555 11.6371 9.00004C11.6371 10.4345 10.47 11.6015 9.03555 11.6015Z" fill="white"/>
<path d="M17.5447 7.46523C17.1714 6.89197 16.118 5.42029 14.4034 4.13828C12.6653 2.83872 10.8527 2.17975 9.01579 2.17975C7.18151 2.17975 5.3673 2.83693 3.62354 4.13297C1.9013 5.41301 0.839473 6.88287 0.462878 7.45539C-0.154293 8.39368 -0.154293 9.60618 0.462878 10.5445C0.839473 11.117 1.9013 12.5869 3.62354 13.8669C5.3673 15.163 7.18147 15.8201 9.01579 15.8201C11.8397 15.8201 14.1106 14.2456 15.5182 12.9247C15.8014 12.659 15.8156 12.2141 15.5499 11.9309C15.2841 11.6476 14.8392 11.6335 14.556 11.8992C13.3334 13.0464 11.3797 14.414 9.01573 14.414C5.6019 14.414 2.77174 11.4959 1.63763 9.77174C1.32924 9.30289 1.32924 8.69708 1.63763 8.22823C2.77174 6.50402 5.6019 3.58604 9.01573 3.58604C12.4294 3.58604 15.2423 6.50683 16.3663 8.23266C16.6698 8.6988 16.6698 9.30117 16.3663 9.76731C16.1544 10.0927 16.2464 10.5283 16.5718 10.7402C16.8972 10.9521 17.3328 10.8601 17.5447 10.5347C18.1518 9.60235 18.1518 8.39751 17.5447 7.46523Z" fill="white"/>
</g>
<defs>
<clipPath id="clip0_22_6019">
<rect width="18" height="18" fill="white"/>
</clipPath>
</defs>
</svg>
