<svg width="18" height="18" viewBox="0 0 18 18" fill="none" xmlns="http://www.w3.org/2000/svg">
<g clip-path="url(#clip0_22_26)">
<path d="M9.03574 10.3712C9.79295 10.3712 10.4068 9.75731 10.4068 9.00009C10.4068 8.24287 9.79295 7.62903 9.03574 7.62903C8.27852 7.62903 7.66467 8.24287 7.66467 9.00009C7.66467 9.75731 8.27852 10.3712 9.03574 10.3712Z" fill="#7761FF"/>
<path d="M9.03568 4.99231C6.82582 4.99231 5.02795 6.79018 5.02795 9.00004C5.02795 11.2099 6.82582 13.0078 9.03568 13.0078C11.2455 13.0078 13.0434 11.2099 13.0434 9.00004C13.0434 6.79018 11.2455 4.99231 9.03568 4.99231ZM9.03568 11.6015C7.60119 11.6015 6.43417 10.4345 6.43417 9.00004C6.43417 7.56555 7.60119 6.39853 9.03568 6.39853C10.4702 6.39853 11.6372 7.56555 11.6372 9.00004C11.6372 10.4345 10.4702 11.6015 9.03568 11.6015Z" fill="#7761FF"/>
<path d="M17.5447 7.46529C17.1714 6.89203 16.118 5.42035 14.4034 4.13834C12.6653 2.83878 10.8527 2.17981 9.01579 2.17981C7.18151 2.17981 5.3673 2.83699 3.62354 4.13303C1.9013 5.41307 0.839473 6.88293 0.462878 7.45545C-0.154293 8.39374 -0.154293 9.60625 0.462878 10.5445C0.839473 11.1171 1.9013 12.5869 3.62354 13.867C5.3673 15.163 7.18147 15.8202 9.01579 15.8202C11.8397 15.8202 14.1106 14.2456 15.5182 12.9248C15.8014 12.659 15.8156 12.2141 15.5499 11.9309C15.2841 11.6477 14.8392 11.6336 14.556 11.8993C13.3334 13.0465 11.3797 14.414 9.01573 14.414C5.6019 14.414 2.77174 11.496 1.63763 9.7718C1.32924 9.30295 1.32924 8.69714 1.63763 8.22829C2.77174 6.50408 5.6019 3.5861 9.01573 3.5861C12.4294 3.5861 15.2423 6.50689 16.3663 8.23272C16.6698 8.69886 16.6698 9.30123 16.3663 9.76737C16.1544 10.0928 16.2464 10.5283 16.5718 10.7402C16.8972 10.9521 17.3328 10.8602 17.5447 10.5347C18.1518 9.60241 18.1518 8.39757 17.5447 7.46529Z" fill="#7761FF"/>
</g>
<defs>
<clipPath id="clip0_22_26">
<rect width="18" height="18" fill="white"/>
</clipPath>
</defs>
</svg>
