<svg width="18" height="16" viewBox="0 0 18 16" fill="none" xmlns="http://www.w3.org/2000/svg">
<path d="M17.2968 6.8047C17.6852 6.8047 17.9999 6.48991 17.9999 6.10158V0.757825C17.9999 0.537009 17.8962 0.329024 17.7199 0.196204C17.5434 0.0633487 17.3149 0.0210557 17.1027 0.0820166C16.2883 0.315911 15.2503 0.249923 13.936 0.166321C13.1131 0.114009 12.1804 0.0547002 11.1093 0.0547002C10.2699 0.0547002 9.51573 0.424825 8.99995 1.00986C8.48417 0.424825 7.73 0.0547002 6.89057 0.0547002C5.81947 0.0547002 4.88677 0.114009 4.06387 0.166356C2.74969 0.249923 1.7116 0.315911 0.897206 0.0820518C0.684933 0.0210908 0.456452 0.0633838 0.280038 0.196239C0.103659 0.32906 -5.14822e-05 0.537044 -5.14822e-05 0.757825V12.4225C-0.00198508 13.1751 0.289671 13.883 0.821128 14.4159C1.35266 14.9488 2.05982 15.2422 2.81245 15.2422H8.29682C8.29682 15.6305 8.61161 15.9453 8.99995 15.9453C9.38828 15.9453 9.70307 15.6305 9.70307 15.2422H15.1874C16.7383 15.2422 17.9999 13.9805 17.9999 12.4297V9.6172C17.9999 9.22886 17.6852 8.91408 17.2968 8.91408C16.9085 8.91408 16.5937 9.22886 16.5937 9.6172C16.5937 10.3926 15.9629 11.0235 15.1874 11.0235H10.0546C9.93426 11.0235 9.8167 11.0357 9.70307 11.0588V2.8672C9.70307 2.09179 10.3339 1.46095 11.1093 1.46095C12.1357 1.46095 13.0448 1.51878 13.8468 1.56976C14.8956 1.63645 15.785 1.69298 16.5937 1.60523V6.10158C16.5937 6.48991 16.9085 6.8047 17.2968 6.8047ZM8.29682 13.836H2.81245C2.43614 13.836 2.08253 13.6892 1.81679 13.4228C1.55104 13.1564 1.40525 12.8024 1.4062 12.4243V12.0513C1.82023 12.2915 2.30036 12.4297 2.81245 12.4297H7.94526C8.13911 12.4297 8.29682 12.5874 8.29682 12.7813V13.836ZM8.29682 11.0588C8.1832 11.0357 8.06564 11.0235 7.94526 11.0235H2.81245C2.03704 11.0235 1.4062 10.3926 1.4062 9.6172V1.60527C2.2149 1.69298 3.10432 1.63645 4.15313 1.56976C4.95515 1.51878 5.86415 1.46095 6.89057 1.46095C7.66598 1.46095 8.29682 2.09179 8.29682 2.8672V11.0588ZM10.0546 12.4297H15.1874C15.6995 12.4297 16.1797 12.2915 16.5937 12.0513V12.4297C16.5937 13.2051 15.9629 13.836 15.1874 13.836H9.70307V12.7813C9.70307 12.5874 9.86082 12.4297 10.0546 12.4297Z" fill="white"/>
</svg>
